<svg xmlns="http://www.w3.org/2000/svg" width="72" height="30" viewBox="0 0 72 30" fill="none"><g clip-path="url(#clip0_1236_13867)"><path d="M36.6245 0.819342C36.5092 1.41501 36.3967 1.99429 36.2842 2.57249C36.1143 3.43805 35.9431 4.30306 35.7706 5.16753C35.6044 5.99633 35.4357 6.82458 35.2643 7.65229C35.1023 8.44451 34.9498 9.23891 34.7732 10.0279C34.4278 11.5681 34.0295 13.0908 33.0248 14.381C32.0262 15.6624 30.7003 16.4955 29.1398 16.9804C27.5647 17.4718 25.9535 17.5264 24.3317 17.2899C23.1633 17.1191 22.0506 16.7827 21.1421 15.996C20.2949 15.2633 19.9253 14.3116 19.8561 13.2388C19.7891 12.1976 19.9247 11.1717 20.1374 10.1507C20.4186 8.78575 20.6768 7.4208 20.9491 6.05584C21.1927 4.83394 21.443 3.61367 21.6877 2.39231C21.7783 1.93806 21.8661 1.48325 21.9443 1.02736C21.9735 0.858653 22.027 0.754371 22.23 0.78167C23.2907 0.918162 24.3652 0.918162 25.4259 0.78167C25.4895 0.782503 25.5529 0.788715 25.6154 0.800233C25.5496 1.16058 25.4911 1.50509 25.4236 1.84797C25.1802 3.08771 24.9348 4.32709 24.6872 5.5661C24.5252 6.37688 24.3497 7.18493 24.195 7.99681C23.8918 9.58506 23.5076 11.1608 23.5762 12.7982C23.6325 14.1981 24.3688 15.231 25.7336 15.6667C26.4221 15.8851 27.14 15.8693 27.8505 15.7716C30.311 15.4314 31.6111 13.8459 32.361 11.7237C32.9145 10.1573 33.1744 8.51931 33.4923 6.89611C33.7994 5.32696 34.1274 3.76109 34.4452 2.19358C34.5285 1.78354 34.614 1.3746 34.6871 0.962389C34.7102 0.835722 34.7501 0.77621 34.9014 0.779486C35.433 0.790405 35.9647 0.7844 36.4963 0.786037C36.5398 0.793852 36.5827 0.804988 36.6245 0.819342Z" fill="white"></path><path d="M35.1782 17.059C35.3734 16.0702 35.563 15.1076 35.7543 14.1456C35.956 13.129 36.1587 12.1126 36.3624 11.0963C36.5312 10.2413 36.7078 9.3863 36.8777 8.5302C37.0464 7.69266 37.2034 6.85404 37.3699 6.01869C37.5353 5.18989 37.7074 4.36273 37.8728 3.53393C38.0377 2.71496 38.2104 1.89599 38.3544 1.07156C38.3949 0.841152 38.4821 0.772358 38.7155 0.77345C40.7407 0.782186 42.7659 0.764715 44.791 0.789284C45.6523 0.800203 46.504 0.921957 47.3039 1.28067C48.4532 1.79443 48.9702 2.70022 48.9353 3.88008C48.9053 5.05052 48.5456 6.19063 47.8952 7.17671C47.0981 8.39043 45.9201 9.07891 44.5261 9.46601C43.2356 9.82363 41.9125 9.92573 40.5776 9.91317C40.3182 9.91317 40.2046 10.0065 40.1596 10.2408C40.0017 11.0619 39.8401 11.8825 39.6747 12.7026C39.502 13.5614 39.3248 14.4246 39.1532 15.2873C39.0598 15.7595 38.9698 16.2329 38.8871 16.7068C38.8213 17.0857 38.7892 17.1338 38.4022 17.083C37.4532 16.9591 36.4913 16.9606 35.5428 17.0874C35.468 17.0947 35.3927 17.0959 35.3177 17.0912C35.2704 17.0843 35.2237 17.0735 35.1782 17.059ZM42.7805 1.96969C42.7576 1.96857 42.7348 1.97153 42.713 1.97843C42.4503 1.97843 42.2433 2.01829 41.9817 2.04067C41.9018 2.04722 41.7803 2.14222 41.764 2.21484C41.6053 2.92461 41.4636 3.63712 41.3207 4.34962C41.0754 5.57098 40.8431 6.79453 40.586 8.01315C40.4538 8.64049 40.4352 8.64322 41.0878 8.61373C42.1966 8.56896 43.1985 8.25229 43.9253 7.39674C44.9024 6.24636 45.254 4.91198 44.9733 3.44712C44.8676 2.89732 44.5739 2.39774 44.0046 2.19136C43.6232 2.0505 43.1906 2.03903 42.7805 1.96969Z" fill="white"></path><path d="M71.9999 17.0802C71.85 17.0883 71.6997 17.0883 71.5498 17.0802C70.4973 16.9533 69.4327 16.9521 68.3799 17.0763C68.2601 17.0988 68.1374 17.1023 68.0165 17.0867C67.9422 17.0714 67.8364 16.9884 67.8269 16.9229C67.7087 16.1132 67.6148 15.3003 67.4955 14.4906C67.3898 13.7717 67.2681 13.0552 67.1304 12.3411C67.1147 12.2581 66.9577 12.1407 66.866 12.1401C65.1034 12.1281 63.3407 12.1281 61.5781 12.1401C61.4695 12.1401 61.3148 12.2422 61.2608 12.3383C60.4402 13.8059 59.6296 15.2786 58.8289 16.7564C58.704 16.9879 58.573 17.0496 58.308 17.0321C57.795 16.9983 57.2785 17.019 56.7638 17.019C56.6727 17.019 56.5815 17.0294 56.4263 17.0392C56.5225 16.8629 56.5872 16.7275 56.6665 16.6024C59.6667 11.7825 62.6659 6.96314 65.6639 2.14432C65.9497 1.68624 66.2388 1.2298 66.5161 0.766808C66.6151 0.603013 66.7277 0.569163 66.9262 0.582812C67.3547 0.613113 67.7849 0.613113 68.2133 0.582812C68.4209 0.568071 68.5121 0.627583 68.5509 0.806118C68.7455 1.73101 68.9396 2.65608 69.1331 3.58134C69.3308 4.52479 69.529 5.46788 69.7277 6.41061C69.9319 7.37154 70.1406 8.33137 70.3465 9.2923C70.5946 10.4476 70.8449 11.6029 71.0891 12.7593C71.2922 13.7191 71.4863 14.6811 71.6871 15.6415C71.7878 16.1061 71.8935 16.5729 71.9999 17.0802ZM62.3302 10.6518C62.5164 10.6698 62.6244 10.6889 62.7324 10.6889C63.97 10.6918 65.2061 10.6927 66.4408 10.6916C66.506 10.6916 66.5898 10.708 66.6326 10.6758C66.6984 10.6261 66.7856 10.5344 66.7766 10.4722C66.7203 10.0954 66.6461 9.72144 66.5746 9.34744C66.3616 8.23364 66.1475 7.11984 65.9322 6.00604C65.8821 5.74943 65.8158 5.49609 65.7573 5.24167L65.6532 5.23238L62.3302 10.6518Z" fill="white"></path><path d="M50.6527 17.4221C49.4837 17.3926 48.2967 17.2037 47.2211 16.5731C47.0175 16.454 46.9848 16.3574 47.0833 16.1417C47.4703 15.2966 47.8382 14.4427 48.1966 13.586C48.2708 13.4086 48.3929 13.3529 48.5403 13.4009C48.6224 13.4277 48.7136 13.5593 48.722 13.6504C48.8908 15.4554 50.4783 16.1876 52.041 15.9894C53.0165 15.8649 53.8485 15.4724 54.4392 14.6752C55.0523 13.8481 55.1705 12.6873 54.7013 11.9775C54.3182 11.3999 53.7298 11.0587 53.1307 10.7305C52.3094 10.2801 51.461 9.86515 50.6836 9.35138C49.5737 8.61758 49.1242 7.54309 49.1822 6.24421C49.2947 3.67045 50.9744 1.47179 53.538 0.694311C55.3989 0.130313 57.2468 0.16471 59.0121 1.08196C59.0284 1.09069 59.0464 1.09615 59.0628 1.10543C59.5488 1.38607 59.5522 1.41391 59.2878 1.89874C58.9924 2.44473 58.7145 3.00272 58.4124 3.54597C58.3506 3.65516 58.2133 3.72669 58.1104 3.81568C58.0277 3.70976 57.9028 3.61531 57.8679 3.49628C57.6401 2.71171 57.1996 2.09639 56.3687 1.86544C54.9421 1.46851 52.796 1.9326 52.3746 4.02534C52.2227 4.77552 52.4387 5.39029 53.0249 5.81998C53.7309 6.33702 54.5061 6.76835 55.2689 7.20786C56.1341 7.7058 56.9898 8.20974 57.5968 9.01451C58.2561 9.88808 58.4147 10.8812 58.2234 11.9208C57.7323 14.5917 55.9687 16.1477 53.4243 16.9984C52.5456 17.2899 51.6388 17.4046 50.6527 17.4221Z" fill="white"></path><path d="M36.782 28.0945C36.782 27.5851 36.7887 27.0762 36.7786 26.5657C36.7747 26.3653 36.8112 26.2709 37.0554 26.2845C37.4092 26.3036 37.767 26.2567 38.1242 26.2731C38.4814 26.2894 38.8387 26.3124 39.179 26.3975C39.8136 26.5564 40.1511 26.9834 40.2664 27.6129C40.4464 28.5957 39.9401 29.5135 38.9911 29.8323C38.821 29.8822 38.644 29.9064 38.4662 29.9038C37.9982 29.9131 37.5296 29.8978 37.0599 29.9093C36.8349 29.9153 36.7735 29.8301 36.7786 29.621C36.7927 29.1122 36.7831 28.6028 36.7831 28.0923L36.782 28.0945ZM37.5695 28.0895C37.5695 28.5165 37.574 28.9435 37.5695 29.3704C37.5667 29.5757 37.6584 29.6609 37.8688 29.674C38.6845 29.7248 39.2049 29.3841 39.3928 28.582C39.6409 27.5195 39.2471 26.4243 37.8508 26.5559C37.6511 26.575 37.5667 26.6438 37.5695 26.8387C37.578 27.2542 37.5718 27.6719 37.5718 28.0895H37.5695Z" fill="white"></path><path d="M41.1221 26.2787C41.7493 26.2787 42.3597 26.2721 42.965 26.288C43.0257 26.288 43.1197 26.4201 43.1287 26.4982C43.1343 26.5528 43.0241 26.6685 42.9599 26.6718C42.6973 26.6806 42.4344 26.6756 42.1724 26.6571C41.9856 26.6478 41.8911 26.7117 41.8911 26.9049C41.8911 27.1321 41.8826 27.3597 41.8725 27.5869C41.8635 27.7883 41.9603 27.8664 42.1628 27.8517C42.3777 27.8358 42.5937 27.8304 42.8092 27.8233C42.9487 27.8184 43.0977 27.7889 43.1034 28.0073C43.109 28.2257 42.9723 28.2044 42.8221 28.1978C42.5881 28.1874 42.3535 28.1885 42.1195 28.1787C41.958 28.1721 41.872 28.2333 41.8742 28.3971C41.8781 28.7061 41.8793 29.0157 41.8793 29.3253C41.8793 29.4951 41.9603 29.5791 42.1369 29.5693C42.3895 29.5546 42.6432 29.542 42.8941 29.5196C43.037 29.5071 43.1304 29.5278 43.1377 29.6954C43.1444 29.8538 43.0702 29.9045 42.92 29.904C42.3758 29.9018 41.832 29.9018 41.2886 29.904C41.1328 29.904 41.0771 29.8434 41.0776 29.6905C41.0827 28.6264 41.0776 27.5612 41.0816 26.4976C41.0895 26.4238 41.1031 26.3506 41.1221 26.2787Z" fill="white"></path><path d="M23.6463 26.3255C24.2578 26.3255 24.8541 26.3026 25.4464 26.3337C25.8228 26.3534 26.0534 26.6067 26.1277 26.9621C26.216 27.3825 26.0501 27.7511 25.7097 27.9564C25.3255 28.1879 25.3221 28.1895 25.5595 28.5624C25.7665 28.8867 25.982 29.2061 26.1924 29.5277C26.261 29.6325 26.3268 29.7384 26.427 29.8957C26.1013 29.8957 25.8324 29.911 25.5674 29.8864C25.4931 29.8793 25.4149 29.7641 25.366 29.6833C25.092 29.2323 24.8271 28.777 24.5587 28.3233L24.4879 28.3375V29.8831H23.644L23.6463 26.3255ZM24.4626 27.2739H24.4524C24.4524 27.4377 24.4491 27.6015 24.4524 27.7653C24.4597 28.0514 24.5256 28.0819 24.8181 28.023C25.4273 27.8996 25.4791 27.02 25.1849 26.753C25.0448 26.6253 24.7821 26.6231 24.5751 26.5641C24.5374 26.7012 24.4907 26.8371 24.4659 26.9763C24.4562 27.0752 24.455 27.1748 24.4626 27.2739Z" fill="white"></path><path d="M27.921 26.2858C27.921 26.4086 27.921 26.5042 27.921 26.6025C27.9182 27.2937 27.885 27.9865 27.921 28.6772C27.9671 29.601 28.6945 29.827 29.3442 29.5966C29.7943 29.4377 29.8989 29.0168 29.9203 28.6139C29.9529 27.9783 29.9371 27.3406 29.9326 26.7029C29.9326 26.2514 29.9225 26.2514 30.4159 26.3175C30.428 26.3756 30.4351 26.4346 30.4372 26.4938C30.4108 27.2036 30.3894 27.9134 30.3501 28.6199C30.3011 29.4896 29.7582 29.9996 28.861 29.9821C28.499 29.9718 28.1408 29.9075 27.7989 29.7915C27.3972 29.6567 27.1627 29.3264 27.1469 28.9147C27.116 28.0957 27.1205 27.2767 27.1227 26.4578C27.1322 26.4199 27.1515 26.385 27.1788 26.3563C27.2061 26.3277 27.2404 26.3062 27.2785 26.294C27.4924 26.2804 27.7068 26.2777 27.921 26.2858Z" fill="white"></path><path d="M32.9122 26.6604C32.5607 26.6604 32.2091 26.6604 31.8575 26.6604C31.7168 26.6604 31.5717 26.6866 31.4378 26.6604C31.3985 26.6434 31.3642 26.6172 31.3381 26.5839C31.3121 26.5507 31.2951 26.5117 31.2887 26.4704C31.2887 26.4038 31.3827 26.2804 31.4367 26.2793C32.3143 26.2673 33.1918 26.2711 34.1487 26.2711C33.7898 26.8493 33.459 27.3696 33.1418 27.8976C32.8245 28.4255 32.5173 28.9622 32.2062 29.4951C32.2214 29.524 32.2361 29.5535 32.2507 29.5825C32.4605 29.5825 32.6698 29.5863 32.8796 29.5825C33.2171 29.5754 33.5547 29.5541 33.8922 29.5606C33.9586 29.5606 34.0233 29.6622 34.0891 29.7173C34.0328 29.7806 33.9738 29.8991 33.9153 29.8997C32.9972 29.9084 32.0791 29.8997 31.1588 29.8969C31.1335 29.8969 31.1082 29.8767 31.0693 29.8604L32.9651 26.7526L32.9122 26.6604Z" fill="white"></path><path d="M22.7877 29.3638C22.8119 29.6614 22.7129 29.8208 22.4333 29.8913C21.7948 30.0523 21.167 30.0518 20.5679 29.7733C19.9687 29.4949 19.6582 29.0051 19.6222 28.3642C19.5806 27.6233 19.7662 26.9648 20.4576 26.546C21.1709 26.1147 21.9349 26.1486 22.7033 26.3855C22.7629 26.4041 22.8237 26.516 22.8265 26.5864C22.831 26.6984 22.7866 26.8125 22.7573 26.9512C22.6939 26.9213 22.6341 26.8846 22.579 26.842C22.035 26.2894 21.037 26.4101 20.6511 27.2853C20.4098 27.8313 20.3929 28.4051 20.6404 28.9565C20.9577 29.6663 21.7655 29.9076 22.4822 29.532C22.5773 29.4829 22.6707 29.4283 22.7877 29.3638Z" fill="white"></path><path d="M65.3748 22.4122C65.3748 21.9307 65.3776 21.4491 65.3748 20.9676C65.3748 20.6192 65.368 20.6214 65.7196 20.6258C66.2709 20.6323 66.8256 20.5996 67.3724 20.6487C68.3743 20.7377 68.8654 21.2853 68.8913 22.2676C68.9154 23.1362 68.4232 23.8613 67.5929 24.1359C67.3859 24.2041 67.1513 24.2107 66.9291 24.2151C66.4987 24.2244 66.0673 24.2031 65.6352 24.2151C65.4198 24.22 65.3629 24.1375 65.3669 23.9421C65.3776 23.4332 65.3703 22.9244 65.3703 22.4133L65.3748 22.4122ZM66.1623 22.4434C66.1623 22.8512 66.168 23.2623 66.1623 23.668C66.1584 23.8831 66.2417 23.9765 66.4723 23.9852C67.3307 24.0191 67.8224 23.6735 68.0007 22.8316C68.2168 21.8002 67.8044 20.7503 66.4942 20.8584C66.258 20.878 66.1567 20.9621 66.1618 21.1909C66.1651 21.608 66.1601 22.0257 66.1601 22.4434H66.1623Z" fill="white"></path><path d="M69.6519 22.417C69.6519 21.9082 69.6615 21.3982 69.6468 20.8883C69.6407 20.6611 69.7127 20.5847 69.9517 20.5934C70.4479 20.612 70.9446 20.606 71.4408 20.6022C71.5893 20.6022 71.6985 20.6104 71.7024 20.7949C71.7063 20.9794 71.6073 21.0018 71.4526 20.9915C71.2192 20.9751 70.984 20.9773 70.7506 20.9631C70.5632 20.9511 70.4693 21.0177 70.4693 21.2088C70.4732 21.4452 70.4693 21.6821 70.458 21.9185C70.449 22.1129 70.5424 22.1741 70.7309 22.1615C70.9739 22.1446 71.218 22.1478 71.4622 22.1331C71.636 22.1227 71.6928 22.1943 71.6872 22.3575C71.6805 22.5328 71.5826 22.536 71.4425 22.5251C71.1905 22.5055 70.9362 22.5038 70.6847 22.4896C70.53 22.4809 70.4597 22.5497 70.4597 22.6966C70.4597 23.0241 70.4665 23.3517 70.4665 23.6793C70.4665 23.8349 70.5514 23.8873 70.6977 23.8802C70.9598 23.8682 71.222 23.8464 71.4853 23.8513C71.5276 23.8563 71.5682 23.8711 71.6034 23.8945C71.6387 23.9178 71.6676 23.9491 71.6878 23.9856C71.7283 24.115 71.6726 24.2127 71.5021 24.2111C70.9587 24.2062 70.4147 24.2029 69.8707 24.2073C69.6705 24.2073 69.6457 24.1025 69.6497 23.9441C69.6558 23.4353 69.6519 22.9264 69.6519 22.417Z" fill="white"></path><path d="M7.17969 27.4598V29.8588C6.75384 29.9505 6.73303 29.9287 6.7409 29.5798C6.7634 28.597 6.77353 27.6143 6.79716 26.6315C6.79997 26.519 6.83541 26.3356 6.90292 26.311C6.98883 26.2742 7.08479 26.2656 7.17619 26.2866C7.26758 26.3076 7.34941 26.357 7.40921 26.4273C7.96163 27.0333 8.52418 27.6285 9.08504 28.229C9.24494 28.4052 9.42203 28.5659 9.61384 28.709C9.68641 27.908 9.65322 27.1109 9.64872 26.3241C10.0639 26.2608 10.0785 26.2695 10.0706 26.6239C10.0487 27.6154 10.0279 28.6069 9.99862 29.5978C9.99862 29.695 9.93674 29.8735 9.90692 29.8708C9.76066 29.8675 9.56602 29.8632 9.47883 29.7753C9.01304 29.3024 8.57875 28.8029 8.12477 28.317C7.8435 28.0156 7.5566 27.7213 7.27195 27.4243L7.17969 27.4598Z" fill="white"></path><path d="M17.2754 29.9007C17.0054 29.9007 16.7551 29.9193 16.5109 29.8893C16.4378 29.8805 16.3618 29.7451 16.323 29.6534C16.233 29.4443 16.1824 29.2166 16.0811 29.0162C16.0527 28.9698 16.0142 28.9299 15.9684 28.8993C15.9225 28.8687 15.8704 28.848 15.8156 28.8388C15.5462 28.8148 15.2722 28.8421 15.0016 28.8251C14.7895 28.812 14.6922 28.9147 14.6331 29.085C14.5707 29.2658 14.5122 29.4476 14.4464 29.6266C14.3299 29.9428 14.2984 29.9542 13.9058 29.85C14.1173 29.3471 14.3299 28.8475 14.5392 28.3469C14.7987 27.7255 15.0569 27.1035 15.3138 26.4807C15.3701 26.3475 15.4325 26.2623 15.6153 26.2579C15.7982 26.2536 15.8567 26.3573 15.9101 26.4873C16.3519 27.565 16.7933 28.643 17.2344 29.7211C17.252 29.7801 17.2658 29.8401 17.2754 29.9007ZM15.4595 27.3778C15.3937 27.4029 15.3391 27.4067 15.3296 27.4291C15.1946 27.7452 15.0595 28.0619 14.9448 28.3845C14.9318 28.4195 15.037 28.5391 15.0961 28.5451C15.2909 28.5577 15.4862 28.5592 15.6812 28.5494C15.8342 28.5494 15.882 28.4664 15.8325 28.3349C15.7144 28.0231 15.5906 27.7141 15.4595 27.3778Z" fill="white"></path><path d="M2.65186 29.855C2.88588 29.3008 3.11202 28.7663 3.33704 28.2313C3.59075 27.6269 3.83714 27.0214 4.10267 26.4257C4.1353 26.3525 4.26468 26.2821 4.35131 26.2794C4.43795 26.2767 4.58365 26.3373 4.6129 26.4061C5.08882 27.5368 5.55067 28.6735 6.01421 29.8097C6.01809 29.8412 6.01809 29.8731 6.01421 29.9047C5.76387 29.9047 5.5141 29.9145 5.26658 29.8976C5.21033 29.8938 5.13157 29.8086 5.10569 29.7447C5.01625 29.5263 4.94255 29.3019 4.86998 29.0775C4.81373 28.9099 4.71922 28.8193 4.52402 28.8297C4.31805 28.8466 4.11091 28.8452 3.90521 28.8253C3.56768 28.7827 3.39892 28.929 3.32466 29.2266C3.29316 29.35 3.24422 29.4685 3.20653 29.5897C3.10471 29.9254 3.05577 29.9522 2.65186 29.855ZM4.19155 27.3539L4.09704 27.3588C3.95809 27.7011 3.81577 28.0418 3.68638 28.3885C3.67288 28.4251 3.74264 28.537 3.78145 28.5387C4.05316 28.5518 4.326 28.5458 4.66072 28.5458C4.48351 28.0942 4.33781 27.723 4.19155 27.3539Z" fill="white"></path><path d="M0.174394 29.1369C0.275653 29.2723 0.329658 29.351 0.390413 29.4247C0.592368 29.6704 0.930459 29.7779 1.19092 29.6655C1.43281 29.5612 1.6072 29.3788 1.54589 29.1135C1.49914 28.9439 1.40118 28.7918 1.26461 28.6767C1.06997 28.5129 0.831451 28.3977 0.612057 28.2606C0.0973253 27.9391 -0.0720018 27.4903 0.109701 26.9246C0.218836 26.5839 0.685188 26.1548 1.28599 26.228C1.35068 26.2356 1.4165 26.2362 1.48119 26.2465C2.04374 26.3339 2.09606 26.5195 1.82491 26.9372C1.66008 26.7013 1.46657 26.5162 1.14985 26.519C0.812324 26.5217 0.558052 26.8651 0.677875 27.1741C0.754944 27.3718 0.864641 27.5394 1.08291 27.6311C1.29655 27.724 1.50331 27.8311 1.70171 27.9516C2.12644 28.2044 2.27664 28.5882 2.18888 29.0496C2.10731 29.4765 1.82829 29.749 1.40694 29.8959C1.03375 30.0255 0.625985 30.0267 0.252026 29.8991C0.0832615 29.8445 -0.00843383 29.779 0.0736982 29.5874C0.120952 29.4656 0.131078 29.3319 0.174394 29.1369Z" fill="white"></path><path d="M12.5944 29.8846H11.7573V29.0754C11.7573 28.3574 11.7528 27.6389 11.7612 26.9204C11.7612 26.7179 11.6915 26.636 11.48 26.6578C11.35 26.6715 11.2184 26.6676 11.0862 26.6736C10.7284 26.69 10.7143 26.6736 10.797 26.2915C10.8533 26.2865 10.918 26.2762 10.981 26.2762C11.7393 26.2762 12.4999 26.2816 13.2559 26.2734C13.4337 26.2734 13.5136 26.3133 13.5102 26.4984C13.5068 26.6955 13.3893 26.6807 13.2469 26.6758C12.4194 26.6458 12.5499 26.5846 12.5488 27.3086C12.5488 28.0626 12.5747 28.8172 12.5893 29.5717C12.5961 29.67 12.5944 29.7683 12.5944 29.8846Z" fill="white"></path><path d="M51.7287 29.9018C51.4677 29.9018 51.2191 29.9144 50.9727 29.8931C50.9068 29.8876 50.832 29.7839 50.7943 29.7135C50.7438 29.5967 50.7005 29.4771 50.665 29.3553C50.4456 28.7613 50.5879 28.8317 49.8836 28.8301C49.0763 28.8301 49.2231 28.7089 48.9452 29.5196C48.8052 29.9302 48.7579 29.9657 48.354 29.8538C48.6938 29.0508 49.0334 28.2484 49.3728 27.4466C49.5072 27.1272 49.6406 26.8078 49.7666 26.4851C49.8228 26.3437 49.8943 26.2667 50.0692 26.2601C50.2442 26.2536 50.2909 26.3344 50.3432 26.466C50.7983 27.5972 51.2534 28.7258 51.7287 29.9018ZM49.8875 27.3778L49.7846 27.3974C49.6597 27.6966 49.5297 27.9936 49.4133 28.2956C49.3497 28.4593 49.4133 28.5593 49.6062 28.5554C49.7834 28.5516 49.9612 28.5554 50.1384 28.5494C50.2937 28.5494 50.3336 28.4648 50.2858 28.331C50.2144 28.1345 50.1429 27.9379 50.0642 27.7447C50.0107 27.6213 49.9466 27.5006 49.8875 27.3778Z" fill="white"></path><path d="M45.8655 28.0844C45.8655 27.5761 45.8745 27.0672 45.8622 26.5595C45.8565 26.3443 45.9184 26.2717 46.1513 26.2897C46.7088 26.3345 46.6953 26.3247 46.6812 26.8745C46.6604 27.6634 46.6666 28.4535 46.6548 29.243C46.6514 29.4832 46.7454 29.5984 47.0058 29.5705C47.2374 29.5416 47.4705 29.5263 47.7039 29.5247C47.7771 29.5247 47.8913 29.5929 47.9127 29.6535C47.952 29.7671 47.9335 29.9003 47.754 29.9009C47.174 29.9036 46.594 29.9091 46.0146 29.8932C45.9629 29.8932 45.874 29.7447 45.8723 29.6639C45.8593 29.137 45.8655 28.6091 45.8655 28.0844Z" fill="white"></path><path d="M64.7044 29.9036C64.3888 29.9036 64.1362 29.9227 63.8898 29.8932C63.7953 29.8823 63.6896 29.7742 63.6333 29.6847C63.401 29.3128 63.1866 28.9301 62.9633 28.5528C62.9144 28.4699 62.8553 28.3923 62.8007 28.3126L62.713 28.3263C62.713 28.5447 62.713 28.763 62.713 28.9814C62.713 29.136 62.7276 29.291 62.7186 29.4444C62.7096 29.5979 62.7107 29.8501 62.6556 29.8637C62.4452 29.9156 62.2134 29.8976 61.9918 29.8818C61.9547 29.8818 61.8995 29.7562 61.8995 29.6885C61.8935 28.6271 61.8935 27.5653 61.8995 26.5032C61.8995 26.4317 61.9895 26.299 62.0385 26.299C62.601 26.299 63.1636 26.2832 63.716 26.3373C64.1295 26.3782 64.3348 26.6239 64.3972 26.9892C64.4681 27.397 64.3134 27.7579 63.9815 27.9566C63.9293 27.9951 63.8712 28.0253 63.8094 28.0462C63.5782 28.1008 63.613 28.2231 63.707 28.3672C63.9751 28.7811 64.244 29.1949 64.5137 29.6088C64.5649 29.6847 64.6133 29.7606 64.7044 29.9036ZM62.718 27.3091H62.7124C62.7124 27.4904 62.7124 27.6711 62.7124 27.8524C62.7124 28.0161 62.8097 28.0757 62.9706 28.0484C63.271 27.9987 63.4803 27.8474 63.5787 27.557C63.7571 27.0328 63.4876 26.5742 62.9937 26.5546C62.7883 26.5469 62.7017 26.6184 62.7124 26.8199C62.727 26.9826 62.718 27.1459 62.718 27.3091Z" fill="white"></path><path d="M66.1584 28.3277C66.1584 28.6755 66.1584 29.0238 66.1584 29.3716C66.1641 29.9509 66.2985 29.8995 65.5891 29.9077C65.3911 29.9077 65.3371 29.8373 65.3405 29.6484C65.3562 28.7038 65.363 27.7593 65.3607 26.8147C65.3607 26.313 65.3467 26.3015 65.867 26.2961C66.3047 26.2917 66.748 26.2835 67.1789 26.3408C67.5957 26.3954 67.8084 26.6488 67.8466 27.0359C67.8849 27.423 67.7769 27.7538 67.4067 27.964C67.0366 28.1742 67.0326 28.1824 67.2599 28.5439C67.4872 28.9053 67.7217 29.2465 67.953 29.5976C68.0092 29.6795 68.0587 29.7614 68.147 29.9006C67.8298 29.9006 67.5687 29.9176 67.3133 29.8908C67.2284 29.8821 67.1333 29.7751 67.0816 29.691C66.8464 29.3088 66.6265 28.9201 66.3986 28.5351C66.3508 28.4549 66.2906 28.3812 66.2366 28.3042L66.1584 28.3277ZM66.1545 27.2854C66.1545 27.4574 66.1579 27.6294 66.1545 27.8008C66.1489 28.0312 66.2709 28.0765 66.4785 28.035C66.7598 27.9777 66.9589 27.8243 67.0219 27.5524C67.0878 27.2668 67.1344 26.9425 66.8858 26.7367C66.739 26.6155 66.4808 26.6073 66.267 26.5903C66.2417 26.5903 66.1837 26.847 66.159 26.9878C66.1494 27.0868 66.1483 27.1863 66.1556 27.2854H66.1545Z" fill="white"></path><path d="M68.4482 29.8614C68.6643 29.3488 68.8735 28.8574 69.0794 28.3638C69.3354 27.7518 69.5857 27.1375 69.8439 26.5255C69.9002 26.3879 69.9469 26.2525 70.1674 26.258C70.3879 26.2634 70.4138 26.4054 70.4723 26.5484C70.8991 27.5905 71.3275 28.6324 71.7577 29.6742C71.7808 29.7288 71.7903 29.791 71.819 29.8926C71.5428 29.8926 71.2947 29.9002 71.0483 29.886C70.9994 29.886 70.9358 29.803 70.9133 29.7462C70.8284 29.5355 70.7552 29.3209 70.6832 29.1058C70.618 28.912 70.5072 28.8033 70.2748 28.8224C70.0603 28.8405 69.8446 28.8405 69.6302 28.8224C69.3697 28.7995 69.2262 28.9082 69.1582 29.1418C69.1149 29.2898 69.0609 29.435 69.0147 29.5819C68.9062 29.927 68.8735 29.9461 68.4482 29.8614ZM70.0071 27.3734L69.9137 27.3587C69.8315 27.5405 69.7449 27.7196 69.669 27.9047C69.3933 28.5855 69.2696 28.5598 70.1753 28.556C70.1938 28.556 70.222 28.5609 70.2315 28.5511C70.2844 28.4867 70.3902 28.4015 70.375 28.3545C70.2625 28.0226 70.1314 27.6994 70.0071 27.3734Z" fill="white"></path><path d="M59.0226 28.0662C59.0226 27.5579 59.0333 27.049 59.0175 26.5413C59.0113 26.3354 59.0738 26.2683 59.2847 26.2727C59.7989 26.2841 60.3136 26.2825 60.8283 26.277C60.983 26.277 61.0747 26.3011 61.0781 26.4801C61.0815 26.6592 60.9926 26.6931 60.8345 26.6832C60.5921 26.6685 60.3479 26.6707 60.1032 26.6565C59.9108 26.6456 59.8309 26.7236 59.8343 26.9098C59.8388 27.1369 59.8343 27.3641 59.8219 27.5912C59.8113 27.7965 59.9103 27.8642 60.1105 27.8516C60.3434 27.8342 60.578 27.8347 60.8109 27.8156C60.9797 27.802 61.0534 27.856 61.0506 28.0264C61.0477 28.1967 60.9555 28.2147 60.8126 28.2049C60.5797 28.1891 60.3446 28.1956 60.1117 28.1759C59.8788 28.1563 59.8113 28.2529 59.8191 28.4599C59.8293 28.741 59.8304 29.0233 59.8242 29.3045C59.8197 29.5016 59.9018 29.5917 60.1055 29.5775C60.3569 29.5573 60.6118 29.5496 60.8604 29.5229C61.0089 29.506 61.0933 29.5595 61.0635 29.6943C61.0461 29.7729 60.951 29.8952 60.8947 29.8969C60.3322 29.9127 59.7696 29.9062 59.2105 29.9078C59.0192 29.9078 59.0169 29.791 59.0186 29.6501C59.0254 29.1194 59.022 28.5931 59.0226 28.0662Z" fill="white"></path><path d="M56.015 26.9765C55.8141 26.6413 55.5526 26.4464 55.1903 26.5397C55.0101 26.5947 54.8564 26.7111 54.7577 26.8673C54.6502 27.0519 54.7256 27.273 54.9163 27.3958C55.1801 27.5662 55.4631 27.7076 55.7393 27.8588C56.0994 28.057 56.3688 28.3191 56.3829 28.7488C56.4065 29.434 55.9171 29.9434 55.1689 29.9783C54.8876 29.9914 54.5968 29.9281 54.3127 29.8866C54.1316 29.8604 54.0534 29.7638 54.1299 29.5759C54.1787 29.4314 54.22 29.2845 54.2536 29.1359C54.3324 29.2544 54.374 29.3199 54.419 29.3837C54.5258 29.5236 54.6763 29.6261 54.8481 29.676C55.0198 29.7259 55.2036 29.7205 55.372 29.6606C55.7905 29.4935 55.8822 29.0179 55.5211 28.7368C55.2842 28.5522 54.9934 28.4321 54.7267 28.2836C54.1597 27.9675 53.9785 27.5192 54.1766 26.9274C54.2891 26.5998 54.5276 26.3574 54.8516 26.2935C55.1899 26.2329 55.5367 26.2329 55.8749 26.2935C56.1995 26.3481 56.2175 26.4513 56.0909 26.7669C56.0729 26.8209 56.0543 26.8717 56.015 26.9765Z" fill="white"></path><path d="M58.0333 28.1132C58.0333 28.6313 58.0237 29.1505 58.0383 29.6676C58.044 29.8516 57.9855 29.9067 57.8038 29.9062C57.0297 29.9023 57.1962 29.9695 57.1934 29.3313C57.19 28.4216 57.1934 27.5115 57.1816 26.6013C57.1776 26.3589 57.2288 26.2274 57.5079 26.2951C57.5264 26.2985 57.5453 26.2999 57.5641 26.2994C58.0428 26.3158 58.0327 26.3158 58.0187 26.775C58.0052 27.2205 58.0187 27.6666 58.0187 28.1121L58.0333 28.1132Z" fill="white"></path><path d="M25.3811 22.4005C25.3811 21.8917 25.3889 21.3828 25.3777 20.8745C25.3732 20.6763 25.4272 20.6048 25.6466 20.6141C26.262 20.6397 26.8808 20.6108 27.4934 20.6588C28.357 20.7271 28.8762 21.3009 28.9054 22.1406C28.933 22.9312 28.6984 23.6099 27.9401 23.9921C27.647 24.1395 27.2847 24.1897 26.9478 24.2159C26.5112 24.2492 26.0691 24.205 25.6292 24.2121C25.4244 24.2154 25.376 24.1351 25.3794 23.9533C25.3889 23.4357 25.3828 22.9159 25.3828 22.4005H25.3811ZM26.2075 22.4054C26.2075 22.8422 26.2075 23.279 26.2075 23.7158C26.2075 23.8758 26.2637 23.9669 26.4437 23.986C27.2549 24.0723 27.8636 23.6552 28.0189 22.8815C28.0514 22.6842 28.0664 22.4846 28.0639 22.2848C28.0779 21.5024 27.6318 20.7686 26.5079 20.8614C26.2963 20.8789 26.2035 20.9444 26.2069 21.1546C26.2148 21.5701 26.208 21.9878 26.2075 22.4054Z" fill="white"></path><path d="M33.4667 22.4083C33.4667 21.8994 33.4752 21.3905 33.4622 20.8822C33.4566 20.6638 33.5247 20.6092 33.7525 20.6169C34.3117 20.6409 34.8742 20.606 35.4323 20.6409C36.8431 20.7294 37.1374 21.8279 36.9281 22.7702C36.7188 23.7126 36.0618 24.2078 35.0717 24.2242C34.6132 24.2318 34.1542 24.2084 33.6957 24.2138C33.5005 24.2138 33.4628 24.1297 33.465 23.9643C33.4718 23.444 33.4667 22.9264 33.4667 22.4083ZM34.2616 22.4132C34.2616 22.8303 34.2487 23.248 34.2706 23.6646C34.2762 23.7705 34.3736 23.9403 34.4619 23.9632C35.0244 24.1123 35.713 23.8163 35.9346 23.2895C36.064 22.981 36.1034 22.6266 36.1276 22.2892C36.181 21.4926 35.6652 20.7643 34.593 20.8571C34.3539 20.8773 34.2554 20.962 34.2605 21.188C34.2661 21.5964 34.2622 22.0026 34.2594 22.4132H34.2616Z" fill="white"></path><path d="M20.0666 24.2046C19.7347 24.2046 19.4742 24.2253 19.2228 24.1936C19.1322 24.1822 19.0394 24.055 18.9815 23.961C18.7514 23.5881 18.5359 23.206 18.3109 22.8298C18.2601 22.7439 18.1808 22.6773 18.0859 22.6409C18.0859 22.9685 18.0701 23.2993 18.0893 23.6269C18.1253 24.2493 18.1343 24.245 17.4946 24.2111C17.3433 24.2029 17.2758 24.1565 17.2764 24.002C17.2803 22.939 17.2764 21.8765 17.2842 20.8135C17.2842 20.7474 17.3692 20.6257 17.4159 20.6251C17.9571 20.6169 18.5005 20.6044 19.0394 20.6409C19.4557 20.6693 19.6998 20.9216 19.7853 21.3049C19.863 21.6521 19.6728 22.0725 19.3539 22.2658C18.9601 22.5022 18.9601 22.5038 19.2127 22.8986C19.4771 23.3135 19.7499 23.7214 20.0666 24.2046ZM18.0819 21.598H18.0684C18.0684 21.77 18.0684 21.942 18.0684 22.114C18.0684 22.3406 18.1905 22.3946 18.3964 22.3499C18.8313 22.2549 18.9989 21.9873 18.964 21.4364C18.9398 21.0542 18.7199 20.861 18.3351 20.8615C18.1703 20.8615 18.0887 20.9292 18.0842 21.0799C18.078 21.2541 18.0819 21.4261 18.0819 21.598Z" fill="white"></path><path d="M7.80334 20.6285C7.80334 21.0615 7.80841 21.477 7.80334 21.8919C7.79322 22.5553 7.77972 23.2192 7.7544 23.882C7.7499 23.9912 7.67452 24.19 7.63739 24.1889C7.49338 24.184 7.30661 24.1561 7.21717 24.0633C6.58205 23.4081 5.96719 22.7344 5.34445 22.0672C5.24487 21.958 5.14193 21.8564 4.97598 21.685C4.94166 21.8701 4.90228 21.9837 4.90341 22.0967C4.90735 22.706 4.91691 23.3148 4.93547 23.9235C4.9411 24.1031 4.92647 24.2184 4.69133 24.2145C4.44606 24.2107 4.48825 24.0693 4.49162 23.9202C4.51412 22.9375 4.53213 21.9547 4.55125 20.9763C4.55125 20.8671 4.55125 20.7612 4.55125 20.6586C4.8674 20.5494 5.07667 20.6345 5.28257 20.8622C5.88168 21.5239 6.5033 22.1666 7.11085 22.8217C7.18398 22.9009 7.22336 23.0074 7.27961 23.1013L7.40225 23.0232C7.41069 22.9298 7.42587 22.8359 7.42587 22.7426C7.42587 22.142 7.4225 21.5414 7.41969 20.9408C7.42137 20.5996 7.42081 20.5996 7.80334 20.6285Z" fill="white"></path><path d="M32.7913 24.2077C32.496 24.2077 32.2704 24.2268 32.0516 24.1984C31.9694 24.1875 31.8727 24.08 31.8339 23.9948C31.7388 23.7884 31.6921 23.558 31.5886 23.3587C31.5596 23.307 31.5194 23.262 31.4709 23.2266C31.4224 23.1913 31.3666 23.1665 31.3073 23.154C31.0189 23.1229 30.7279 23.1218 30.4393 23.1507C30.3307 23.1622 30.2019 23.2796 30.144 23.3817C30.0491 23.5487 29.9833 23.7299 29.9493 23.9178C29.8931 24.2399 29.6894 24.2416 29.3975 24.1761C29.5072 23.9091 29.6095 23.653 29.7164 23.3991C30.0736 22.5529 30.4354 21.7066 30.7853 20.8609C30.8522 20.6971 30.9034 20.5753 31.1273 20.5742C31.3602 20.5742 31.3743 20.7418 31.4271 20.8712C31.813 21.8136 32.1899 22.7592 32.5708 23.7032C32.6338 23.8523 32.7007 23.9986 32.7913 24.2077ZM30.868 21.6372C30.76 21.878 30.6857 22.0418 30.6131 22.2062C30.3195 22.8679 30.3544 22.9159 31.0924 22.8772C31.3107 22.8668 31.4091 22.81 31.3039 22.5796C31.1987 22.3492 31.1318 22.1226 31.0384 21.8966C31.0075 21.8212 30.9478 21.7568 30.868 21.6372Z" fill="white"></path><path d="M14.4087 22.3949C14.4087 21.8861 14.4188 21.3767 14.4036 20.8662C14.3975 20.644 14.4785 20.5872 14.6967 20.5932C15.2115 20.609 15.7262 20.6047 16.2409 20.5997C16.3973 20.5997 16.489 20.6243 16.4862 20.8045C16.4834 20.9847 16.3855 20.995 16.2482 20.9896C15.9957 20.9792 15.742 20.9776 15.4899 20.9628C15.3212 20.953 15.2475 21.0251 15.2447 21.1812C15.2402 21.4265 15.2345 21.6719 15.2278 21.9172C15.2227 22.0881 15.3015 22.1683 15.4821 22.1591C15.7161 22.1471 15.9501 22.1427 16.1841 22.135C16.3366 22.1301 16.4704 22.14 16.4575 22.3452C16.4457 22.532 16.3242 22.5331 16.1813 22.5232C15.9478 22.5079 15.7138 22.5008 15.4804 22.4877C15.3088 22.4774 15.2075 22.5423 15.2103 22.7187C15.216 23.037 15.2261 23.3548 15.2357 23.6725C15.2396 23.8161 15.3122 23.8876 15.4663 23.8789C15.7189 23.8653 15.9726 23.8576 16.2235 23.844C16.3439 23.8374 16.4733 23.7894 16.484 23.9859C16.4935 24.1497 16.4277 24.213 16.2589 24.2109C15.7155 24.2032 15.1721 24.2005 14.6275 24.2054C14.4515 24.2054 14.4025 24.1317 14.4053 23.9739C14.4121 23.4498 14.4087 22.9223 14.4087 22.3949Z" fill="white"></path><path d="M3.01502 20.6258C3.1021 20.6321 3.18953 20.6321 3.27661 20.6258C3.4645 20.5936 3.52919 20.6657 3.52019 20.8442C3.4825 21.5797 3.46394 22.3184 3.41668 23.05C3.36831 23.7701 2.84457 24.2621 2.10313 24.2899C1.81443 24.3053 1.52489 24.2841 1.24187 24.2266C0.982625 24.1683 0.75125 24.0267 0.585234 23.8249C0.419218 23.623 0.328285 23.3727 0.327169 23.1144C0.313668 22.35 0.320981 21.5857 0.315918 20.8246C0.315918 20.6788 0.361484 20.6133 0.526311 20.6133C1.02529 20.6133 1.01404 20.6084 0.998289 21.0954C0.979725 21.667 0.971287 22.2419 0.9831 22.8119C0.992432 23.0298 1.03509 23.2451 1.10967 23.4507C1.23343 23.8105 1.56928 23.9869 2.05813 23.9858C2.45979 23.9858 2.76863 23.8095 2.86932 23.4398C2.9657 23.0811 3.02228 22.7134 3.03809 22.3429C3.06003 21.881 3.02459 21.4148 3.01446 20.954C3.01277 20.8502 3.01502 20.7476 3.01502 20.6258Z" fill="white"></path><path d="M10.4194 20.616C10.7288 20.616 10.9865 20.6061 11.2424 20.6241C11.2987 20.628 11.369 20.7241 11.3949 20.7918C11.6542 21.4813 11.904 22.1742 12.1605 22.8665C12.2005 22.9757 12.2595 23.0745 12.3433 23.2487C12.565 22.7136 12.7624 22.249 12.9492 21.7811C13.0713 21.4764 13.1782 21.1663 13.2896 20.8584C13.3846 20.5974 13.4161 20.5854 13.7778 20.6869C13.6501 20.9872 13.5213 21.2826 13.3993 21.5807C13.0657 22.3969 12.7293 23.2121 12.4086 24.0333C12.3484 24.1883 12.2533 24.2402 12.1172 24.2101C12.0047 24.185 11.841 24.1353 11.8078 24.054C11.3437 22.9342 10.8987 21.8106 10.4194 20.616Z" fill="white"></path><path d="M20.6345 23.4302C20.8482 23.9008 21.1588 24.0515 21.5795 24.0045C21.8147 23.9789 21.9851 23.867 22.0543 23.6415C22.1235 23.416 22.1021 23.1921 21.8957 23.0502C21.6707 22.9036 21.4353 22.7726 21.1914 22.6581C20.4415 22.2836 20.3082 21.7065 20.6041 21.095C20.8758 20.5348 21.9345 20.3104 22.4335 20.6975C22.6585 20.8706 22.4408 21.0415 22.4093 21.1507C22.1528 21.0355 21.9294 20.8892 21.6853 20.8373C21.4288 20.7827 21.2128 20.9176 21.107 21.1704C21.0012 21.4231 21.1211 21.6071 21.3151 21.736C21.5503 21.8832 21.7931 22.0186 22.0425 22.1417C22.636 22.4589 22.834 22.8487 22.6979 23.4394C22.5927 23.8975 22.0847 24.2737 21.5165 24.289C21.2742 24.2879 21.0322 24.2697 20.7925 24.2344C20.5034 24.2005 20.4123 24.0422 20.5113 23.7769C20.5484 23.6917 20.5765 23.6005 20.6345 23.4302Z" fill="white"></path><path d="M23.5146 20.6133C23.77 20.6133 23.9844 20.6133 24.1981 20.6133C24.3962 20.6133 24.3585 20.7547 24.3579 20.8661C24.3579 21.6485 24.35 22.4314 24.3478 23.2138C24.3478 23.4595 24.3438 23.7052 24.3618 23.9509C24.3765 24.1594 24.2887 24.2151 24.0851 24.214C23.5062 24.2113 23.5175 24.2189 23.5225 23.6478C23.5287 22.7563 23.518 21.8647 23.5152 20.9725C23.5146 20.865 23.5146 20.758 23.5146 20.6133Z" fill="white"></path><path d="M8.86251 22.4119C8.86251 21.9025 8.86982 21.3931 8.85913 20.8831C8.85519 20.6779 8.89682 20.5932 9.1404 20.6145C9.71758 20.6642 9.69789 20.65 9.69058 21.2304C9.67933 22.1121 9.69452 22.9945 9.71027 23.8762C9.71645 24.1962 9.7187 24.2093 9.37611 24.2065C8.86307 24.2027 8.86588 24.2027 8.86982 23.6939C8.87432 23.2664 8.86982 22.8388 8.86982 22.4108L8.86251 22.4119Z" fill="white"></path><path d="M55.4972 22.417C55.4972 21.8989 55.4972 21.3797 55.4972 20.8615C55.4972 20.7387 55.4837 20.6125 55.6693 20.6153C56.2955 20.6257 56.925 20.6055 57.5483 20.654C58.4033 20.7212 58.8421 21.1454 58.9856 21.9644C59.1594 22.9379 58.6565 23.8235 57.7232 24.1341C57.4903 24.2117 57.2259 24.2144 56.975 24.2204C56.5722 24.2302 56.1689 24.204 55.7661 24.2133C55.5551 24.2182 55.4893 24.1505 55.495 23.9458C55.509 23.4369 55.4995 22.927 55.4995 22.417H55.4972ZM56.2921 22.417H56.2865C56.2865 22.844 56.2865 23.2715 56.2865 23.6984C56.2865 23.889 56.3708 23.9714 56.5728 23.9834C57.4341 24.038 57.9437 23.6826 58.1333 22.8003C58.3437 21.8224 57.9494 20.7327 56.5863 20.8593C56.3725 20.8795 56.2876 20.9582 56.291 21.1629C56.2966 21.5822 56.2921 22.0032 56.2921 22.4181V22.417Z" fill="white"></path><path d="M45.5063 24.2096C45.1964 24.2096 44.9612 24.2287 44.7328 24.2003C44.6349 24.1883 44.5207 24.0949 44.4656 24.0076C44.2265 23.6292 44.0077 23.2394 43.7793 22.8545C43.7308 22.7624 43.6552 22.6864 43.5622 22.6361C43.5496 22.7115 43.5411 22.7875 43.5368 22.8637C43.5368 23.1269 43.5368 23.3906 43.5368 23.6543C43.5368 24.2664 43.6932 24.2058 42.9293 24.2112C42.7526 24.2112 42.7099 24.1304 42.7105 23.9743C42.7155 22.9298 42.7105 21.8853 42.7195 20.8403C42.7195 20.7666 42.8067 20.6301 42.8562 20.629C43.3883 20.617 43.925 20.5963 44.4527 20.6389C44.9258 20.6765 45.1564 20.9179 45.2132 21.3044C45.2824 21.7778 45.121 22.1518 44.694 22.3161C44.3958 22.4308 44.4313 22.5531 44.5657 22.7529C44.8014 23.1018 45.031 23.455 45.261 23.8077C45.3359 23.9186 45.4017 24.0349 45.5063 24.2096ZM43.5413 21.6211H43.5357C43.5357 21.7931 43.5391 21.9651 43.5357 22.137C43.5307 22.3407 43.6448 22.3833 43.8243 22.3527C44.2608 22.279 44.4819 21.9476 44.4347 21.4338C44.402 21.0735 44.1579 20.8644 43.7855 20.8616C43.6235 20.8616 43.5385 20.9129 43.5419 21.08C43.5413 21.2591 43.5413 21.4404 43.5413 21.6211Z" fill="white"></path><path d="M39.5548 22.3998C39.5548 21.8914 39.5616 21.3826 39.5514 20.8748C39.5475 20.6745 39.6077 20.6078 39.8254 20.6182C40.3002 20.6412 40.7817 20.5997 41.2515 20.6422C41.7386 20.6854 41.9918 20.9611 42.0587 21.4066C42.1234 21.8379 41.9153 22.2955 41.5209 22.4527C41.2439 22.5571 40.9522 22.6203 40.6557 22.64C40.4071 22.6607 40.3295 22.7492 40.348 22.9769C40.3739 23.293 40.3722 23.6113 40.3958 23.928C40.4093 24.1169 40.366 24.2168 40.1416 24.2102C39.4721 24.1922 39.5537 24.2932 39.5638 23.6517C39.57 23.234 39.5638 22.8163 39.5638 22.3987L39.5548 22.3998ZM41.2228 21.6163C41.2228 21.1795 41.0101 20.8939 40.6636 20.8612C40.4645 20.8426 40.3604 20.9125 40.3587 21.1129C40.3587 21.4574 40.3542 21.8025 40.3435 22.147C40.3368 22.3681 40.4594 22.4079 40.6484 22.3768C41.0006 22.3189 41.2211 22.0285 41.2228 21.6163Z" fill="white"></path><path d="M62.8736 24.2074C62.6014 24.2074 62.3769 24.2222 62.157 24.1992C62.081 24.191 61.9882 24.1015 61.9522 24.0267C61.8644 23.8264 61.7893 23.6211 61.7272 23.4119C61.6709 23.2345 61.5736 23.1335 61.3666 23.1389C61.105 23.1482 60.8423 23.1389 60.579 23.1389C60.4102 23.1389 60.2977 23.1935 60.2494 23.3688C60.201 23.5441 60.1138 23.7253 60.0536 23.9066C59.9467 24.2293 59.9101 24.2511 59.5034 24.1594C59.6204 23.8826 59.7352 23.6134 59.8494 23.3404C60.206 22.493 60.5655 21.6479 60.9182 20.7967C60.9745 20.6542 61.0397 20.5739 61.2175 20.5783C61.3953 20.5827 61.4498 20.6755 61.5067 20.8152C61.9336 21.8706 62.369 22.9227 62.8005 23.9759C62.823 24.0327 62.8365 24.0933 62.8736 24.2074ZM61.0482 21.6648L60.9599 21.6719C60.8783 21.8521 60.7872 22.029 60.7157 22.2124C60.4418 22.9167 60.4777 22.9582 61.258 22.8747C61.2766 22.8747 61.3058 22.8791 61.3143 22.8698C61.3576 22.807 61.4453 22.7262 61.4268 22.6792C61.3131 22.3374 61.1776 22.0028 61.0482 21.6648Z" fill="white"></path><path d="M54.7922 24.2041C54.5266 24.2041 54.2859 24.2166 54.0479 24.1954C53.9826 24.1899 53.9028 24.0922 53.8718 24.0195C53.7836 23.8099 53.7074 23.5958 53.6434 23.378C53.5934 23.2104 53.4887 23.1411 53.3166 23.1416C53.0454 23.1416 52.7709 23.116 52.5043 23.1498C52.3861 23.1645 52.2477 23.2781 52.1836 23.3835C52.0857 23.5445 52.0419 23.7367 51.98 23.9169C51.8731 24.2292 51.8315 24.251 51.4326 24.1631C51.5845 23.8028 51.7336 23.4468 51.8827 23.0908C52.2072 22.3199 52.5262 21.5468 52.8643 20.7813C52.9031 20.6923 53.037 20.6175 53.1428 20.5881C53.2901 20.5444 53.3633 20.6367 53.4207 20.7792C53.8488 21.8416 54.2887 22.8997 54.7235 23.96C54.7477 24.0228 54.7595 24.096 54.7922 24.2041ZM52.9689 21.6565L52.8817 21.6789C52.8024 21.852 52.7096 22.0202 52.6472 22.1987C52.3912 22.9254 52.2162 22.885 53.1816 22.8724C53.2187 22.8724 53.2682 22.8724 53.2896 22.8539C53.3301 22.8151 53.392 22.7474 53.3796 22.7141C53.2474 22.3592 53.1045 22.0087 52.9661 21.6565H52.9689Z" fill="white"></path><path d="M47.7603 20.6078C48.0241 20.6078 48.2694 20.5799 48.5023 20.6214C48.5962 20.6384 48.6924 20.795 48.7352 20.9075C49.0164 21.6457 49.2791 22.3888 49.579 23.2072C49.6735 23.08 49.7438 23.0177 49.7742 22.9402C50.0391 22.2708 50.3024 21.6009 50.5544 20.9272C50.6399 20.6984 50.7356 20.5253 51.0523 20.6618C51.0501 20.7172 51.0412 20.7722 51.0258 20.8256C50.5961 21.8788 50.1618 22.9309 49.732 23.9841C49.6707 24.1348 49.5902 24.2216 49.4035 24.2151C49.2302 24.2091 49.143 24.1605 49.0761 23.9923C48.6564 22.9364 48.2199 21.8865 47.7918 20.8333C47.7693 20.7803 47.7743 20.7153 47.7603 20.6078Z" fill="white"></path><path d="M46.162 22.3889C46.162 21.8806 46.171 21.3718 46.1575 20.8635C46.1525 20.6702 46.2104 20.6063 46.4112 20.615C46.9912 20.6401 46.9828 20.6341 46.98 21.202C46.9755 22.1017 46.9755 23.001 46.9923 23.9002C46.9963 24.1399 46.9271 24.2185 46.6773 24.2136C46.0585 24.201 46.162 24.2316 46.1806 23.7222C46.1969 23.2778 46.184 22.8317 46.184 22.3867L46.162 22.3889Z" fill="white"></path><path d="M0.11251 0C0.343717 0.266439 0.565361 0.540521 0.807257 0.797132C1.07278 1.07886 1.34843 1.35185 1.6342 1.6161C1.70963 1.68223 1.76895 1.76381 1.80786 1.85494C1.84678 1.94606 1.86433 2.04445 1.85922 2.14297C1.85397 6.4635 1.85303 10.7842 1.85641 15.1051C1.85641 15.5605 1.85641 15.5605 2.33795 15.5605C6.50943 15.5605 10.6809 15.5583 14.8524 15.5539C15.1449 15.5539 15.3638 15.6227 15.568 15.8351C16.0096 16.2932 16.477 16.7267 16.9327 17.1711C16.989 17.2257 17.039 17.2912 17.1369 17.402C16.9828 17.4146 16.8871 17.4293 16.7915 17.4293C11.2988 17.4293 5.80587 17.4313 0.312777 17.4354C0.0562548 17.437 0 17.3496 0 17.1198C0.00525045 11.5067 0.0069381 5.89368 0.00506294 0.280634C0.00506294 0.202013 0.0168765 0.123938 0.0230645 0.0458624L0.11251 0Z" fill="white"></path><path d="M12.5293 13.4581C12.2514 13.7338 12.0016 13.9385 11.807 14.1848C11.3952 14.7062 10.8838 14.8645 10.2065 14.84C8.77426 14.7854 7.33751 14.8176 5.9047 14.829C5.63074 14.829 5.53173 14.746 5.56267 14.4862C5.58297 14.3412 5.58297 14.1943 5.56267 14.0494C5.46704 13.4723 5.66956 13.0257 6.15447 12.6882C6.58651 12.3874 6.73165 11.991 6.69621 11.468C6.64783 10.75 6.68496 10.7582 5.93677 10.744C5.81207 10.7366 5.68732 10.7577 5.5726 10.8057C5.45787 10.8537 5.35639 10.9272 5.27633 11.0203C4.95456 11.3615 4.61028 11.6842 4.26375 12.003C4.17716 12.0803 4.06694 12.1281 3.94985 12.139C3.63201 12.157 3.31248 12.139 2.99351 12.1483C2.80843 12.1532 2.74993 12.0773 2.75049 11.9053C2.75387 10.2401 2.75049 8.57483 2.75556 6.91068C2.75335 6.82093 2.78097 6.73287 2.83431 6.65953C3.2506 6.18125 3.67813 5.7117 4.1563 5.17773C4.16924 5.37593 4.18443 5.50532 4.18499 5.63144C4.18499 7.09613 4.18499 8.56081 4.18499 10.0255C4.18499 10.4121 4.19005 10.4159 4.59621 10.4181C4.74641 10.4181 4.89718 10.4077 5.04625 10.4181C5.29771 10.4383 5.38041 10.3214 5.37084 10.0943C5.35627 9.88558 5.3606 9.67603 5.38378 9.46805C5.39391 9.39489 5.51204 9.28078 5.58236 9.27969C6.45394 9.26658 7.32551 9.26658 8.19709 9.27969C8.26684 9.27969 8.39285 9.39544 8.39398 9.45877C8.40673 10.3232 8.40673 11.1873 8.39398 12.0511C8.39398 12.1133 8.26684 12.222 8.19427 12.2263C7.85674 12.246 7.51921 12.2405 7.18169 12.2356C7.0163 12.2356 6.94148 12.2902 6.9471 12.4589C6.95554 12.6861 6.95892 12.9143 6.9471 13.1409C6.93529 13.3674 7.03261 13.4395 7.26269 13.4373C8.44404 13.4291 9.6254 13.4341 10.8067 13.4341C11.2568 13.4341 11.7068 13.4341 12.1569 13.4341C12.2536 13.4357 12.3521 13.4472 12.5293 13.4581Z" fill="white"></path><path d="M7.32003 2.22559C7.32003 2.62579 7.32678 2.95993 7.31722 3.29407C7.3116 3.49281 7.39204 3.57743 7.59849 3.57143C7.83252 3.56542 8.06766 3.57743 8.30168 3.57143C8.45469 3.56706 8.5267 3.62057 8.5267 3.77453C8.52332 4.73874 8.52332 5.7033 8.5267 6.66823C8.5267 6.82165 8.46088 6.87789 8.30787 6.87625C7.80157 6.87225 7.29528 6.87225 6.78899 6.87625C6.62022 6.87625 6.55272 6.81346 6.55778 6.64967C6.56566 6.3674 6.54484 6.08403 6.56734 5.80394C6.58985 5.52386 6.46383 5.42885 6.18819 5.45943C6.01942 5.4769 5.85066 5.45561 5.68189 5.45943C5.51313 5.46325 5.4445 5.40483 5.44787 5.23612C5.45519 4.86322 5.44337 4.48977 5.45631 4.11741C5.46139 4.0189 5.5011 3.92506 5.56882 3.85152C6.07905 3.34375 6.59828 2.84473 7.11695 2.34461C7.18106 2.29944 7.24899 2.25962 7.32003 2.22559Z" fill="white"></path><path d="M15.4579 10.4282C15.0112 10.8525 14.5325 11.2505 14.1269 11.7097C13.7511 12.1355 13.3365 12.2917 12.7627 12.2556C11.9909 12.2065 11.9886 12.2431 11.9886 11.4885C11.9886 11.0665 11.9886 11.0665 11.5386 11.0665C10.8759 11.0665 10.8759 11.0665 10.8742 10.4173C10.8742 10.1083 10.8815 9.79873 10.8714 9.48915C10.8658 9.32263 10.9344 9.26203 11.0992 9.26148C11.9796 9.25766 12.8606 9.24565 13.7432 9.25165C13.8113 9.25165 13.9255 9.36522 13.9373 9.43838C13.966 9.61582 13.9469 9.80036 13.9474 9.98436C13.9474 10.3382 13.9474 10.3387 14.3266 10.3398H15.414C15.4275 10.366 15.4427 10.396 15.4579 10.4282Z" fill="white"></path><path d="M12.9707 0.545499H15.0943C15.7778 0.545499 16.4619 0.545499 17.1454 0.540039C17.2978 0.540039 17.4266 0.545499 17.4266 0.745874C17.4233 2.09263 17.4214 3.43774 17.421 4.78122C17.4183 4.80815 17.4107 4.83441 17.3985 4.85875L12.9707 0.545499ZM14.9925 1.24763L14.9739 1.34536L16.6323 2.9096C16.6323 2.48974 16.6323 2.0939 16.6323 1.69806C16.6323 1.24708 16.6323 1.24763 16.1823 1.24763C15.9674 1.24763 15.7525 1.24763 15.5382 1.24763H14.9925Z" fill="white"></path><path d="M12.9385 3.63682L10.9386 5.55812C10.9268 5.41781 10.911 5.28513 10.9065 5.15628C10.8925 4.72932 10.8745 4.30182 10.8779 3.87432C10.8779 3.79461 10.9724 3.64828 11.0269 3.64719C11.6446 3.63081 12.2578 3.63682 12.9385 3.63682Z" fill="white"></path><path d="M13.8948 5.19238C13.9049 5.2852 13.9229 5.37802 13.9235 5.47138C13.9269 5.87923 13.9235 6.28707 13.9235 6.69492C13.9235 6.8276 13.9179 6.963 13.7305 6.96409C13.1905 6.96409 12.651 6.96409 12.1138 6.96409L13.9286 5.26773L13.8948 5.19238Z" fill="white"></path></g><defs><clipPath id="clip0_1236_13867"><rect width="72" height="30" fill="white"></rect></clipPath></defs></svg>